inDegrees=yes
name=ik_lifting_orientations
DataType=double
version=3
OpenSimVersion=4.5-2024-01-10-34fd6af
endheader
time	pelvis_tilt	pelvis_list	pelvis_rotation	pelvis_tx	pelvis_ty	pelvis_tz	hip_flexion_r	hip_adduction_r	hip_rotation_r	knee_angle_r	knee_angle_r_beta	ankle_angle_r	subtalar_angle_r	mtp_angle_r	hip_flexion_l	hip_adduction_l	hip_rotation_l	knee_angle_l	knee_angle_l_beta	ankle_angle_l	subtalar_angle_l	mtp_angle_l	lumbar_extension	lumbar_bending	lumbar_rotation	arm_flex_r	arm_add_r	arm_rot_r	elbow_flex_r	pro_sup_r	wrist_flex_r	wrist_dev_r	arm_flex_l	arm_add_l	arm_rot_l	elbow_flex_l	pro_sup_l	wrist_flex_l	wrist_dev_l
1.11	-1.332810255234072	3.568721434520127	-87.99735242217915	0	0.9399999998679526	0	44.91626995835663	-10.50670584069778	0	60.2329633964719	1.051263529501661	-5.150493576397881	0	0	44.91626995835663	-10.50670584069778	0	60.2329633964719	1.051263529501661	-5.150493576397881	0	0	-4.693896390220868	7.634979081717812	31.7461925054355	-8.289374977436012	-19.66903466996983	-41.30885190088465	47.4533132403954	1.910059914059325	0	0	0	-10.22653340487118	0	88.13371661125318	1.910059914059325	0	0
1.12	-1.139489336658618	3.223449397586228	-88.12789280213509	0	0.9399999998679526	0	44.91629013108203	-10.50628027945321	0	60.23291928307017	1.051262759577557	-5.150328806190222	0	0	44.91629013108203	-10.50628027945321	0	60.23291928307017	1.051262759577557	-5.150328806190222	0	0	-5.302840751794037	7.527893896041941	31.37575029595791	-8.246298262653513	-20.48817904045783	-41.27938780236276	49.46730119501959	1.909739357203721	0	0	0	-10.2271241755306	0	88.13402978631801	1.909739357203721	0	0
1.13	-1.099903536645419	2.994564202819865	-88.57770594096226	0	0.9399999998679526	0	44.91684032511755	-10.49830761516236	0	60.23139783664226	1.051236205327997	-5.147496818898791	0	0	44.91684032511755	-10.49830761516236	0	60.23139783664226	1.051236205327997	-5.147496818898791	0	0	-5.699751968143675	7.49155559161253	31.37234717371667	-8.339150862835742	-21.2262020958362	-41.38205631858309	51.78069290223037	1.900116863380989	0	0	0	-10.24624179718565	0	88.14343078163243	1.900116863380989	0	0
1.14	-0.9536581961269796	2.696688035715247	-88.61270376554828	0	0.9399999998679526	0	44.9174755179598	-10.48930313822998	0	60.22963203804701	1.051205386328583	-5.144320502045464	0	0	44.9174755179598	-10.48930313822998	0	60.22963203804701	1.051205386328583	-5.144320502045464	0	0	-6.142965957878197	7.378583422065546	30.89060495683249	-8.391944792866095	-21.93000535001008	-41.19211747784686	54.29768681550917	1.888963628836254	0	0	0	-10.2684617533515	0	88.15432728565635	1.888963628836254	0	0
1.15	-0.8452683781574608	2.350294922195969	-89.01538905783693	0	0.9399999998679526	0	44.9180096390197	-10.48169004324945	0	60.22815683785264	1.051179639228065	-5.141631427806618	0	0	44.9180096390197	-10.48169004324945	0	60.22815683785264	1.051179639228065	-5.141631427806618	0	0	-6.474890772217646	7.201234863839789	30.64516433994517	-8.696632647504156	-22.55746196565407	-41.28346427552966	57.20279644764315	1.879596981251205	0	0	0	-10.28710442555385	0	88.16347832611353	1.879596981251205	0	0
1.16	-0.7003389003760123	2.023837060641376	-89.03913918484315	0	0.9399999998679526	0	44.91856891573632	-10.47376957688627	0	60.22661418829298	1.051152714914044	-5.138840407708993	0	0	44.91856891573632	-10.47376957688627	0	60.22661418829298	1.051152714914044	-5.138840407708993	0	0	-6.689480531901164	6.997881570489606	29.95365755070464	-9.08372717768729	-23.05246048178929	-41.394578418121	60.37724266372616	1.869779882477443	0	0	0	-10.30665538911211	0	88.17306944974332	1.869779882477443	0	0
1.17	-0.6571760945737604	1.762927855200193	-89.35749163745569	0	0.9399999998679526	0	44.9190631781828	-10.46679020933926	0	60.22525432601498	1.05112898083992	-5.136384014331974	0	0	44.9190631781828	-10.46679020933926	0	60.22525432601498	1.05112898083992	-5.136384014331974	0	0	-6.820356780284428	6.832843473399175	29.86965207180388	-9.635939108088623	-23.34543810824964	-41.9200729184068	63.85613982201627	1.861101122856388	0	0	0	-10.32394234482664	0	88.18154843731047	1.861101122856388	0	0
1.18	-0.5846179698409348	1.521901096143294	-89.61175887167096	0	0.9399999998679526	0	44.9195537726624	-10.45989609635441	0	60.22390674486183	1.05110546111186	-5.133962152740406	0	0	44.9195537726624	-10.45989609635441	0	60.22390674486183	1.05110546111186	-5.133962152740406	0	0	-6.867244410583882	6.611475557538998	29.82616468751468	-10.37742726772488	-23.53306013636789	-42.59078143503113	67.77750276532986	1.852481065448056	0	0	0	-10.34111930342265	0	88.18997007434686	1.852481065448056	0	0
1.19	-0.4667702146880372	1.300873224484081	-89.65803243979092	0	0.9399999998679526	0	44.92001014498785	-10.45355380586535	0	60.22265118470651	1.051083547453192	-5.131742066306007	0	0	44.92001014498785	-10.45355380586535	0	60.22265118470651	1.051083547453192	-5.131742066306007	0	0	-6.81816102737571	6.347584337387202	29.76407975256827	-11.20618939157421	-23.61735960462962	-43.42559125386903	71.98602506332907	1.844446339062996	0	0	0	-10.357151892809	0	88.19781985509903	1.844446339062996	0	0
1.2	-0.4030983001168759	1.18660110286646	-89.89909559866059	0	0.9399999998679526	0	44.92047948964161	-10.44706834232228	0	60.22136173270923	1.051061042270294	-5.129476875594924	0	0	44.92047948964161	-10.44706834232228	0	60.22136173270923	1.051061042270294	-5.129476875594924	0	0	-6.617374885460222	6.07756841656757	29.7192199549686	-11.88478421487275	-23.62056687550711	-43.92236417419616	76.51390065790503	1.836176820606831	0	0	0	-10.37366080344886	0	88.20589902389766	1.836176820606831	0	0
1.21	-0.3099967088838337	1.015166691749915	-90.26348473916194	0	0.9399999998679526	0	44.9209514523308	-10.44065698794432	0	60.22005978020226	1.051038318912342	-5.12724949330912	0	0	44.9209514523308	-10.44065698794432	0	60.22005978020226	1.051038318912342	-5.12724949330912	0	0	-6.505312420701975	5.769632028805979	29.89302980165505	-12.68079326519305	-23.53430332366822	-44.48657934029354	81.6760110407002	1.827835078294035	0	0	0	-10.39035034962004	0	88.21404875622009	1.827835078294035	0	0
1.22	-0.2598232530178141	0.8419000951700352	-90.46778104891671	0	0.9399999998679526	0	44.92142520144596	-10.43417615644315	0	60.21876230504258	1.051015673698843	-5.124994750233754	0	0	44.92142520144596	-10.43417615644315	0	60.21876230504258	1.051015673698843	-5.124994750233754	0	0	-6.291083871148381	5.504151990218443	30.01016518454583	-13.67892841246853	-23.31408579269456	-45.1027465072893	87.22824265126347	1.819476618373841	0	0	0	-10.40705057077983	0	88.22221482007259	1.819476618373841	0	0
1.23	-0.2067696649475382	0.7229112704545205	-90.3951818702712	0	0.9399999998679526	0	44.92189969507645	-10.42775206915774	0	60.21746181455776	1.050992975857992	-5.122767596588667	0	0	44.92189969507645	-10.42775206915774	0	60.21746181455776	1.050992975857992	-5.122767596588667	0	0	-5.958161347077732	5.221720666143219	29.70049619170563	-14.49125679427365	-23.08744744894016	-45.33130587000787	93.0270038674072	1.811090511740691	0	0	0	-10.42382558889624	0	88.23040789541055	1.811090511740691	0	0
1.24	-0.06355633351959006	0.4443362510461335	-90.39026175142313	0	0.9399999998679526	0	44.92235036910913	-10.42171454882354	0	60.2162251664537	1.050971392276888	-5.120681711849291	0	0	44.92235036910913	-10.42171454882354	0	60.2162251664537	1.050971392276888	-5.120681711849291	0	0	-5.734299724231822	4.809095968293605	29.5759785433731	-15.37335571531814	-22.7196602089988	-45.50657410279877	99.30474827888544	1.803110737696313	0	0	0	-10.43980787577368	0	88.23820399227401	1.803110737696313	0	0
1.25	-0.01135603378126242	0.3464871004841172	-90.34484971094389	0	0.9399999998679526	0	44.92278859208984	-10.41589902216281	0	60.21502192145561	1.050950391689963	-5.118678912652589	0	0	44.92278859208984	-10.41589902216281	0	60.21502192145561	1.050950391689963	-5.118678912652589	0	0	-5.306421358730423	4.485782147297289	29.36169700788376	-16.12755669155592	-22.22830443906058	-45.43208595827447	105.8623984873043	1.795339065371555	0	0	0	-10.45539011069874	0	88.24579677842712	1.795339065371555	0	0
1.26	0.1035875357634065	0.2317673610847935	-90.18312964617293	0	0.9399999998679526	0	44.92327443709683	-10.4095337027567	0	60.21368539695873	1.050927064936959	-5.116496043751674	0	0	44.92327443709683	-10.4095337027567	0	60.21368539695873	1.050927064936959	-5.116496043751674	0	0	-5.000254939660199	4.111658042850614	28.65252761521536	-16.81727779248534	-21.89243039076035	-44.92567080313248	112.7734421584512	1.786703733654928	0	0	0	-10.47273018670461	0	88.25423334597166	1.786703733654928	0	0
